<?xml version="1.0" encoding="utf-8"?>
<!-- Generator: Adobe Illustrator 23.0.1, SVG Export Plug-In . SVG Version: 6.00 Build 0)  -->
<svg version="1.1" id="Layer_1" xmlns="http://www.w3.org/2000/svg" xmlns:xlink="http://www.w3.org/1999/xlink" x="0px" y="0px"
	 viewBox="0 0 100 35" enable-background="new 0 0 100 35" xml:space="preserve">
<symbol  id="New_Symbol" viewBox="-11.2 -16.61 22.4 33.23">
	<polygon fill-rule="evenodd" clip-rule="evenodd" fill="#272727" stroke="#272727" stroke-width="2" points="2.65,15.61 0.01,8.72 
		-2.41,14.61 -3.7,14.61 -0.65,7.06 -9.73,-15.61 -8.31,-15.61 -0.04,5.41 0.04,5.41 8.32,-15.61 9.73,-15.61 0.69,7.01 0.68,7.04 
		3.95,15.61 	"/>
</symbol>
<g>
	<g>
		<path fill="#272727" d="M73.74,34.8h-4.53L51.73,8.32V34.8h-4.19V1.25h4.51l17.48,26.48V1.25h4.21V34.8z"/>
	</g>
	
		<use xlink:href="#New_Symbol"  width="22.4" height="33.23" x="-11.2" y="-16.61" transform="matrix(1.0476 0 0 -1.0533 31.646 17.5)" overflow="visible"/>
	<polygon fill-rule="evenodd" clip-rule="evenodd" fill="#272727" points="31.63,25.07 28.25,34.83 35.04,34.83 31.66,25.07 	"/>
	<g>
		<path fill="#272727" d="M100,5.23H88.96V34.8h-4.44V5.23H73.57V1.25H100V5.23z"/>
	</g>
	<g>
		<path fill="#272727" d="M22.51,5.23H4.42v10.39H20.1v3.98H4.42v15.2H0V1.25h22.51V5.23z"/>
	</g>
</g>
</svg>
