<?xml version="1.0" encoding="utf-8"?>
<!-- Generator: Adobe Illustrator 23.0.1, SVG Export Plug-In . SVG Version: 6.00 Build 0)  -->
<svg version="1.1" id="Layer_1" xmlns="http://www.w3.org/2000/svg" xmlns:xlink="http://www.w3.org/1999/xlink" x="0px" y="0px"
	 viewBox="0 0 300 80" enable-background="new 0 0 300 80" xml:space="preserve">
<g>
	<polygon fill="#685C5C" points="250,5 250,0 50,0 50,5 0,5 0,75 0,80 50,80 50,75 250,75 250,80 300,80 300,75 300,5 	"/>
	<rect x="35" y="20" fill="#EDE4E4" width="30" height="35"/>
	<rect x="30" y="55" fill="#8C7D7D" width="40" height="5"/>
	<rect x="85" y="20" fill="#EDE4E4" width="30" height="35"/>
	<rect x="80" y="55" fill="#8C7D7D" width="40" height="5"/>
	<rect x="135" y="20" fill="#EDE4E4" width="30" height="35"/>
	<rect x="130" y="55" fill="#8C7D7D" width="40" height="5"/>
	<rect x="185" y="20" fill="#EDE4E4" width="30" height="35"/>
	<rect x="180" y="55" fill="#8C7D7D" width="40" height="5"/>
	<rect x="235" y="20" fill="#EDE4E4" width="30" height="35"/>
	<rect x="230" y="55" fill="#8C7D7D" width="40" height="5"/>
</g>
</svg>
